<?xml version="1.0" encoding="UTF-8"?>
<svg width="400" height="300" viewBox="0 0 400 300" fill="none" xmlns="http://www.w3.org/2000/svg">
  <rect width="400" height="300" fill="#F3F4F6"/>
  <path d="M200 100C177.909 100 160 117.909 160 140C160 162.091 177.909 180 200 180C222.091 180 240 162.091 240 140C240 117.909 222.091 100 200 100ZM200 170C183.458 170 170 156.542 170 140C170 123.458 183.458 110 200 110C216.542 110 230 123.458 230 140C230 156.542 216.542 170 200 170Z" fill="#9CA3AF"/>
  <path d="M200 120C188.954 120 180 128.954 180 140C180 151.046 188.954 160 200 160C211.046 160 220 151.046 220 140C220 128.954 211.046 120 200 120Z" fill="#6B7280"/>
  <path d="M200 130C193.373 130 188 135.373 188 142C188 148.627 193.373 154 200 154C206.627 154 212 148.627 212 142C212 135.373 206.627 130 200 130Z" fill="#4B5563"/>
  <path d="M200 100V80M200 80V60M200 60H220M200 60H180M200 80H220M200 80H180M200 100V120M200 120V140M200 140V160M200 160V180M200 180H220M200 180H180M200 160H220M200 160H180M200 140H220M200 140H180M200 120H220M200 120H180M200 100H220M200 100H180" stroke="#9CA3AF" stroke-width="4" stroke-linecap="round"/>
  <path d="M160 140H140M140 140H120M140 140V120M140 140V160M240 140H260M260 140H280M260 140V120M260 140V160" stroke="#9CA3AF" stroke-width="4" stroke-linecap="round"/>
</svg>
